<svg width="128" height="128" viewBox="0 0 128 128" fill="none" xmlns="http://www.w3.org/2000/svg">
<rect width="128" height="128" rx="64" fill="white"/>
<circle cx="64" cy="64" r="62.5" fill="white" stroke="#1F2937" stroke-width="3"/>
<path d="M19.5746 43.024C20.9666 43.072 22.7906 43.12 25.0466 43.168C27.3506 43.216 29.6546 43.24 31.9586 43.24C34.3586 43.24 36.6626 43.216 38.8706 43.168C41.0786 43.12 42.6386 43.096 43.5506 43.096C50.8466 43.096 56.2706 44.416 59.8226 47.056C63.4226 49.696 65.2226 53.104 65.2226 57.28C65.2226 59.008 64.8626 60.832 64.1426 62.752C63.4226 64.624 62.1986 66.376 60.4706 68.008C58.7426 69.592 56.3666 70.888 53.3426 71.896C50.3666 72.904 46.5746 73.408 41.9666 73.408H34.3346V71.968H41.2466C43.6946 71.968 45.5426 71.32 46.7906 70.024C48.0866 68.728 48.9506 67.024 49.3826 64.912C49.8626 62.8 50.1026 60.52 50.1026 58.072C50.1026 53.512 49.5746 50.104 48.5186 47.848C47.5106 45.592 45.7346 44.464 43.1906 44.464C41.5586 44.464 40.5026 44.872 40.0226 45.688C39.5426 46.504 39.3026 48.16 39.3026 50.656V85.648C39.3026 87.616 39.4946 89.08 39.8786 90.04C40.3106 91 41.1026 91.624 42.2546 91.912C43.4066 92.2 45.0866 92.344 47.2946 92.344V94C45.6626 93.952 43.5266 93.904 40.8866 93.856C38.2466 93.808 35.4386 93.784 32.4626 93.784C30.2546 93.784 28.0466 93.808 25.8386 93.856C23.6306 93.904 21.5426 93.952 19.5746 94V92.56C21.0626 92.464 22.1666 92.272 22.8866 91.984C23.6066 91.696 24.0866 91.12 24.3266 90.256C24.5666 89.392 24.6866 88.096 24.6866 86.368V50.656C24.6866 48.88 24.5666 47.584 24.3266 46.768C24.0866 45.904 23.5826 45.328 22.8146 45.04C22.0946 44.704 21.0146 44.512 19.5746 44.464V43.024ZM77.9475 37.696C80.4435 37.696 82.3635 38.224 83.7075 39.28C85.0995 40.288 85.7955 41.824 85.7955 43.888C85.7955 45.952 85.0995 47.512 83.7075 48.568C82.3635 49.576 80.4435 50.08 77.9475 50.08C75.4515 50.08 73.5075 49.576 72.1155 48.568C70.7715 47.512 70.0995 45.952 70.0995 43.888C70.0995 41.824 70.7715 40.288 72.1155 39.28C73.5075 38.224 75.4515 37.696 77.9475 37.696ZM84.8595 55.84V87.304C84.8595 89.32 85.1475 90.688 85.7235 91.408C86.3475 92.128 87.4035 92.488 88.8915 92.488V94C87.9315 93.952 86.4915 93.904 84.5715 93.856C82.6515 93.76 80.6835 93.712 78.6675 93.712C76.6515 93.712 74.6115 93.76 72.5475 93.856C70.4835 93.904 68.9235 93.952 67.8675 94V92.488C69.3555 92.488 70.3875 92.128 70.9635 91.408C71.5875 90.688 71.8995 89.32 71.8995 87.304V64.48C71.8995 62.32 71.6115 60.736 71.0355 59.728C70.4595 58.672 69.4035 58.144 67.8675 58.144V56.632C69.4035 56.776 70.8915 56.848 72.3315 56.848C74.7315 56.848 76.9635 56.776 79.0275 56.632C81.1395 56.44 83.0835 56.176 84.8595 55.84ZM100.273 82.624C102.529 82.624 104.281 83.152 105.529 84.208C106.777 85.216 107.401 86.752 107.401 88.816C107.401 90.88 106.777 92.44 105.529 93.496C104.281 94.504 102.529 95.008 100.273 95.008C97.9691 95.008 96.1931 94.504 94.9451 93.496C93.7451 92.44 93.1451 90.88 93.1451 88.816C93.1451 86.752 93.7451 85.216 94.9451 84.208C96.1931 83.152 97.9691 82.624 100.273 82.624Z" fill="#1F2937"/>
</svg>
